<?xml version="1.0"?>
<svg xmlns="http://www.w3.org/2000/svg" height="25px" viewBox="0 0 512.00016 512" width="25px"><path d="m508.882812 481.3125-184.546874-292c-3.664063-5.796875-10.042969-9.3125-16.90625-9.3125h-31.429688c0-8.207031 0-153.679688 0-160 0-11.046875-8.953125-20-20-20h-159.984375c-17.019531 0-26.261719 20-15.230469 32.960938l28.964844 34.039062-28.964844 34.039062c-11.03125 12.960938-1.792968 32.960938 15.230469 32.960938h139.988281v46h-31.433594c-6.859374 0-13.238281 3.515625-16.90625 9.3125l-184.546874 292c-8.402344 13.300781 1.171874 30.6875 16.90625 30.6875h471.953124c15.730469 0 25.3125-17.386719 16.90625-30.6875zm-369.585937-387.3125 11.945313-14.039062c6.355468-7.472657 6.355468-18.449219 0-25.921876l-11.945313-14.039062h96.707031v54zm76.289063 126h80.828124l43.988282 69.601562-25.40625 22.027344-45.894532-39.789062c-7.515624-6.519532-18.679687-6.515625-26.199218 0l-45.894532 39.789062-25.410156-22.027344zm-159.265626 252 93.664063-148.199219 33.921875 29.410157c7.519531 6.515624 18.683594 6.519531 26.199219 0l45.898437-39.789063 45.894532 39.789063c7.515624 6.519531 18.683593 6.515624 26.199218 0l33.917969-29.410157 93.664063 148.199219zm0 0" fill="#0274b3"/></svg>
