<?xml version="1.0"?>
<svg xmlns="http://www.w3.org/2000/svg" height="25px" viewBox="-21 -97 682.66669 682" width="25px"><path d="m131.25 220.25c-31.015625 0-56.25 25.234375-56.25 56.25s25.234375 56.25 56.25 56.25 56.25-25.234375 56.25-56.25-25.234375-56.25-56.25-56.25zm0 75c-10.335938 0-18.75-8.414062-18.75-18.75s8.414062-18.75 18.75-18.75 18.75 8.414062 18.75 18.75-8.414062 18.75-18.75 18.75zm0 0" fill="#0274b3"/><path d="m508.75 220.25c-31.015625 0-56.25 25.234375-56.25 56.25s25.234375 56.25 56.25 56.25 56.25-25.234375 56.25-56.25-25.234375-56.25-56.25-56.25zm0 75c-10.335938 0-18.75-8.414062-18.75-18.75s8.414062-18.75 18.75-18.75 18.75 8.414062 18.75 18.75-8.414062 18.75-18.75 18.75zm0 0" fill="#0274b3"/><path d="m560.890625-4.75h-481.78125l-37.5 150h-41.609375v37.5h25.914062l-25.914062 51.828125v173.171875h37.5v75h150v-75h265v75h150v-75h37.5v-173.171875l-25.914062-51.828125h25.914062v-37.5h-41.609375zm-29.28125 37.5 28.125 112.5h-82.8125l-107.773437-71.851562-20.796876 31.203124 60.96875 40.648438h-122.398437l-107.773437-71.851562-20.796876 31.203124 60.96875 40.648438h-139.054687l28.125-112.5zm-381.609375 412.5h-75v-37.5h75zm246.25-75h-152.5v-37.5h152.5zm168.75 75h-75v-37.5h75zm37.5-201.824219v126.824219h-168.75v-75h-227.5v75h-168.75v-126.824219l30.335938-60.675781h504.328124zm0 0" fill="#0274b3"/><path d="m225 220.25h190v37.5h-190zm0 0" fill="#0274b3"/></svg>
