<?xml version="1.0"?>
<svg xmlns="http://www.w3.org/2000/svg" height="25px" version="1.1" viewBox="1 -76 511.99998 511" width="25px">
<g id="surface1">
<path d="M 466.40625 0.5 L 45.59375 0.5 C 20.453125 0.5 0 20.953125 0 46.09375 C 0 57.355469 0 288.890625 0 313.78125 C 0 338.921875 20.453125 359.375 45.59375 359.375 L 466.40625 359.375 C 491.546875 359.375 512 338.921875 512 313.78125 C 512 304.800781 512 62.742188 512 46.09375 C 512 20.953125 491.546875 0.5 466.40625 0.5 Z M 481.605469 313.78125 C 481.605469 322.160156 474.785156 328.976562 466.40625 328.976562 L 45.59375 328.976562 C 37.214844 328.976562 30.394531 322.160156 30.394531 313.78125 L 30.394531 303.738281 C 50.207031 303.738281 461.71875 303.738281 481.605469 303.738281 Z M 481.605469 273.34375 C 461.644531 273.34375 50.117188 273.34375 30.394531 273.34375 L 30.394531 86.53125 L 481.605469 86.53125 Z M 481.605469 56.136719 L 30.394531 56.136719 L 30.394531 46.09375 C 30.394531 37.710938 37.214844 30.894531 45.59375 30.894531 L 466.40625 30.894531 C 474.785156 30.894531 481.605469 37.710938 481.605469 46.09375 Z M 481.605469 56.136719 " style=" fill-rule:nonzero;fill-opacity:1;" stroke="#0274b3" fill="#0274b3"/>
<path d="M 168.535156 121.148438 C 161.210938 117.050781 151.949219 119.671875 147.851562 126.996094 L 115.207031 185.402344 L 102.152344 130.875 C 100.519531 124.035156 94.40625 119.214844 87.375 119.214844 L 62.480469 119.214844 C 54.089844 119.214844 47.285156 126.019531 47.285156 134.414062 C 47.285156 142.804688 54.089844 149.609375 62.480469 149.609375 L 75.382812 149.609375 L 94.703125 230.324219 C 96.160156 236.410156 101.203125 240.984375 107.402344 241.839844 C 113.542969 242.695312 119.667969 239.710938 122.75 234.199219 L 174.382812 141.828125 C 178.480469 134.5 175.859375 125.242188 168.535156 121.148438 Z M 168.535156 121.148438 " style=" fill-rule:nonzero;fill-opacity:1;" stroke="#0274b3" fill="#0274b3"/>
<path d="M 254.710938 241.984375 L 311.59375 241.984375 C 343.027344 241.984375 360.90625 206.292969 342.519531 181.113281 C 335.230469 171.128906 323.957031 165.402344 311.59375 165.402344 L 286.339844 165.402344 C 280.988281 165.402344 277.183594 160.210938 278.820312 155.101562 C 279.867188 151.816406 282.890625 149.609375 286.339844 149.609375 L 343.222656 149.609375 C 351.613281 149.609375 358.417969 142.804688 358.417969 134.414062 C 358.417969 126.019531 351.613281 119.214844 343.222656 119.214844 L 286.339844 119.214844 C 269.613281 119.214844 254.957031 129.917969 249.867188 145.847656 C 241.960938 170.578125 260.375 195.796875 286.339844 195.796875 L 311.59375 195.796875 C 316.945312 195.796875 320.75 200.984375 319.117188 206.097656 C 318.066406 209.382812 315.042969 211.585938 311.59375 211.585938 L 254.710938 211.585938 C 246.320312 211.585938 239.515625 218.390625 239.515625 226.785156 C 239.515625 235.179688 246.320312 241.984375 254.710938 241.984375 Z M 254.710938 241.984375 " style=" fill-rule:nonzero;fill-opacity:1;" stroke="#0274b3" fill="#0274b3"/>
<path d="M 368.359375 238.726562 C 375.683594 242.824219 384.945312 240.203125 389.039062 232.875 L 396.703125 219.167969 L 432.386719 219.167969 L 434.738281 229 C 436.6875 237.148438 444.878906 242.199219 453.058594 240.242188 C 461.222656 238.289062 466.253906 230.085938 464.300781 221.921875 L 442.191406 129.550781 C 438.976562 116.125 420.882812 113.613281 414.144531 125.671875 C 365.78125 212.183594 431.179688 95.183594 362.507812 218.046875 C 358.410156 225.371094 361.03125 234.632812 368.359375 238.726562 Z M 421.6875 174.472656 L 425.109375 188.769531 L 413.691406 188.769531 Z M 421.6875 174.472656 " style=" fill-rule:nonzero;fill-opacity:1;" stroke="#0274b3" fill="#0274b3"/>
<path d="M 196.246094 241.988281 C 203.582031 241.988281 210.039062 236.660156 211.234375 229.183594 L 225.996094 136.8125 C 227.320312 128.523438 221.675781 120.730469 213.386719 119.40625 C 205.101562 118.078125 197.304688 123.726562 195.980469 132.015625 L 181.21875 224.386719 C 179.742188 233.640625 186.898438 241.988281 196.246094 241.988281 Z M 196.246094 241.988281 " style=" fill-rule:nonzero;fill-opacity:1;" stroke="#0274b3" fill="#0274b3"/>
</g>
</svg>
